<?xml version="1.0" encoding="UTF-8"?>
<svg width="640" height="480" xmlns="http://www.w3.org/2000/svg" xmlns:svg="http://www.w3.org/2000/svg">
 <title>Monogram k</title>
 <metadata id="metadata4">image/svg+xml</metadata>
 <g>
  <title>Layer 1</title>
  <g id="layer1">
   <path d="m306.56699,600.93903c-9.922,-0.30903 -18.47199,-0.82105 -19,-1.138c-0.52799,-0.31702 -4.16599,-0.85706 -8.086,-1.19904c-7.237,-0.63202 -18.017,-2.242 -33.37299,-4.98297c-27.58801,-4.92505 -72.02701,-22.00702 -95,-36.51703c-3.575,-2.258 -7.40001,-4.505 -8.5,-4.99298c-2.563,-1.138 -17.78,-11.39502 -23,-15.50299c-2.2,-1.73102 -5.951,-4.46399 -8.336,-6.07202c-2.384,-1.60797 -7.10901,-5.40198 -10.5,-8.43c-10.33101,-9.22699 -42.891,-42.00598 -47.48801,-47.80798c-8.99449,-11.35101 -32.1763,-48.95599 -32.1763,-52.19501c0,-0.60504 -0.33749,-1.10601 -0.75,-1.112c-0.41239,-0.00604 -1.64939,-1.919 -2.74889,-4.25c-1.0993,-2.33102 -3.6868,-7.33801 -5.75,-11.12701c-2.0631,-3.789 -3.7511,-7.62601 -3.7511,-8.52701c0,-0.90198 -0.5918,-2.52698 -1.3153,-3.612c-0.7234,-1.08499 -1.8949,-3.99698 -2.6032,-6.47198c-0.7084,-2.47501 -1.6408,-4.95001 -2.0721,-5.5c-0.7542,-0.96201 -5.1182,-13.586 -8.2971,-24c-0.8395,-2.75 -2.0532,-7.70001 -2.6974,-11c-0.6444,-3.30002 -1.9996,-9.60001 -3.012,-14c-1.0123,-4.4 -2.1313,-10.92502 -2.4866,-14.5c-0.3553,-3.57501 -1.389,-11.45001 -2.297,-17.5c-2.0642,-13.75302 -2.2137,-64.43802 -0.2183,-74c0.6885,-3.30002 2.0836,-11.17502 3.1003,-17.5c2.6627,-16.568 3.6633,-20.97901 8.053,-35.5c7.6388,-25.27101 10.2243,-33.20201 12.437,-38.15201c0.7748,-1.733 1.4087,-3.455 1.4087,-3.826c0,-0.603 15.3719,-31.81701 18.9105,-38.39901c4.24609,-7.89799 18.64349,-28.41299 29.87379,-42.56599c18.51801,-23.338 60.38401,-59.6249 85.71601,-74.2938c9.976,-5.7767 29.787,-15.5558 38,-18.7567c3.84999,-1.5007 8.8,-3.5168 11,-4.4802c3.606,-1.5796 23.46301,-8.627 31,-11.0023c24.293,-7.6568 63.60599,-13.6805 87,-13.3305c30.526,0.4567 52.96701,2.5771 72.5,6.8503c3.57501,0.7821 9.84698,2.1163 13.93899,2.9649c7.69699,1.5965 10.32199,2.3603 25.65,7.4643c4.99902,1.6646 9.56701,3.0266 10.14999,3.0266c0.58402,0 4.96002,1.8176 9.72403,4.0391c4.76398,2.2216 10.771,4.8838 13.349,5.9161c20.298,8.1273 59.63998,32.4973 71.32297,44.1798c0.94201,0.9424 2.73401,2.2604 3.98303,2.9284c7.62598,4.081 42.367,40.54001 54.15698,56.836c7.04498,9.737 15.67401,22.884 17.021,25.93299c0.64898,1.46701 1.73199,3.11802 2.40802,3.66802c0.67596,0.54999 2.85699,4.14999 4.84601,8c1.98895,3.84999 4.16095,7.67499 4.82495,8.5c1.35901,1.68599 3.89703,6.965 8.65704,18c1.77899,4.125 3.84998,8.38699 4.60101,9.472c0.75196,1.08499 1.36695,2.74699 1.36695,3.69299c0,0.946 0.86102,3.208 1.914,5.027c1.05304,1.819 2.48205,5.333 3.17505,7.80801c0.69397,2.47499 1.57098,4.95 1.94995,5.5c1.16504,1.68899 6.69,21.46298 8.80102,31.5c3.46301,16.46399 4.11499,20.25 5.20203,30.21899c0.58398,5.345 1.29498,10.745 1.58099,12c0.28699,1.254 0.69299,12.63102 0.90296,25.28101c0.28601,17.24899 -0.00495,25.625 -1.16596,33.5c-2.13104,14.452 -2.07501,14.04599 -3.81604,27.5c-1.90601,14.737 -1.93597,14.91 -4.45099,26c-3.28296,14.47299 -9.12598,33.487 -12.64599,41.151c-0.79603,1.733 -1.44703,3.448 -1.44703,3.81198c0,0.36301 -1.17895,3.22 -2.62097,6.349c-1.44098,3.12802 -3.74798,8.16303 -5.12701,11.18802c-6.25598,13.72397 -13.37897,26.733 -20.80701,37.99997c-2.71997,4.125 -5.16998,7.72504 -5.44501,8c-0.58599,0.586 -2.99395,4.03503 -9.07598,13c-4.63996,6.84002 -4.67798,6.89001 -10.46302,14c-9.00799,11.07001 -13.33398,15.96502 -19.91498,22.53003c-8.88501,8.86596 -18.583,17.46997 -19.69,17.46997c-0.466,0 -3.987,2.88 -7.82196,6.40002c-5.88501,5.401 -18.68506,14.48603 -34.03406,24.15698c-4.17999,2.633 -26.65496,14.75904 -36.49996,19.69202c-15.49802,7.76599 -45.83701,18.07898 -65.5,22.26502c-0.82502,0.17596 -3.75,0.84198 -6.5,1.47998c-2.75,0.63897 -5.9,1.28698 -7,1.44097c-1.10001,0.15406 -3.57502,0.53803 -5.5,0.85401c-4.081,0.67102 -17.88102,2.37903 -26.5,3.281c-15.883,1.66303 -22.327,1.888 -39.04102,1.36805l0.00001,0zm14.31802,-6.49506c1.22299,-0.85596 2.22299,-2.20398 2.22299,-2.99499c0,-1.11396 0.84299,-1.28595 3.75,-0.76398c5.08899,0.91498 9.18201,0.617 10.88001,-0.79297c1.17199,-0.97205 0.66598,-1.86902 -2.97901,-5.28101c-4.77801,-4.47302 -9.74099,-11.39502 -15.475,-21.58001c-3.14899,-5.594 -3.72101,-6.172 -3.98499,-4.03003c-0.17102,1.375 -1.18301,4.40704 -2.25,6.73901c-1.06802,2.331 -1.94101,4.659 -1.94101,5.172c0,1.80798 -9.225,11.04303 -14.58099,14.599c-2.98102,1.97802 -5.41901,3.97003 -5.41901,4.42602c0,2.00202 10.719,2.81897 13.99201,1.06702c1.488,-0.79602 2.46298,-0.39404 4.858,2c3.37799,3.37897 7.40198,3.909 10.927,1.43994zm-42.68402,-8.30395c13.19702,-4.54102 24.53802,-14.753 30.13702,-27.13904c3.18598,-7.04798 4.556,-17.27497 3.371,-25.172c-0.64401,-4.297 -6.32702,-14.30096 -10.272,-18.08197c-10.725,-10.27801 -20.686,-14.62799 -35.29101,-15.41101c-15.74701,-0.84302 -29.86399,2.67499 -55.038,13.71503c-9.817,4.30499 -11.673,4.92999 -28.5,9.58996c-8.49299,2.35199 -11.959,2.776 -23,2.815c-9.186,0.03101 -14.02701,-0.38201 -16.5,-1.40899c-7.04001,-2.922 -14.516,-9.58197 -17.015,-15.15698c-0.589,-1.31403 -1.72,-3.51404 -2.513,-4.88904c-1.95601,-3.39099 -1.869,-13.36298 0.155,-17.62598c0.894,-1.88599 2.75501,-4.31702 4.134,-5.40198c9.224,-7.255 17.495,8.802 8.76101,17.00696c-1.38701,1.30304 -2.52201,3.11005 -2.52201,4.01502c0,2.60101 5.196,7.74102 10.055,9.945c10.32701,4.685 16.945,1.15802 16.945,-9.03198c0,-5.29102 -3.626,-17.61603 -6.113,-20.77704c-3.59099,-4.56695 -1.748,-5.71796 2.444,-1.52698c3.32,3.32099 8.15901,15.89801 9.514,24.72998c1.23101,8.02301 1.85801,8.961 7.02401,10.50904c2.14099,0.64196 4.45199,1.83996 5.13499,2.66198c1.95101,2.35199 3.134,1.72498 8.836,-4.682c4.985,-5.60102 5.30901,-6.27802 4.869,-10.16199c-0.259,-2.28803 -1.197,-5.82703 -2.084,-7.86401c-2.60901,-5.98999 -12.748,-17.69397 -20.125,-23.232c-1.98401,-1.48901 -1.983,-1.50098 0.16001,-1.53302c2.10399,-0.03101 11.039,6.34003 14.62799,10.42999c0.98401,1.12104 4.21499,5.42804 7.181,9.57105c7.218,10.08301 8.37201,10.992 14.784,11.65399c6.276,0.64801 11.49899,-0.72302 17.06601,-4.47803c3.29699,-2.224 7.47198,-7.80298 6.50399,-8.69195c-0.17801,-0.16303 -2.34799,-0.99201 -4.82299,-1.84204c-13.47501,-4.62598 -22.50501,-9.146 -34.321,-17.17798c-4.85201,-3.29804 -10.52901,-6.896 -12.61701,-7.99604c-2.087,-1.09997 -4.41899,-2.526 -5.181,-3.16699c-2.188,-1.84198 -11.94299,-5.544 -16.88099,-6.406c-9.27701,-1.62 -28.22501,3.88702 -30.96001,8.99701c-0.627,1.17199 -1.537,1.88702 -2.021,1.58703c-1.761,-1.08801 -9.06199,7.65198 -12.52099,14.98895c-3.35801,7.12305 -4.092,11.875 -3.36701,21.79401c0.761,10.41003 2.53101,15.008 8.739,22.70599c7.886,9.77704 14.53301,13.93103 30.19501,18.87104c7.55699,2.38299 20.80099,2.46399 30.83999,0.18701c17.02201,-3.85901 28.75901,-8.27203 37.595,-14.13501c11.27201,-7.47803 28.41901,-13.79102 41.61802,-15.32098c5.39697,-0.625 19.35098,2.09295 24.69097,4.81097c12.70102,6.46399 18.34702,19.435 13.14002,30.19098c-2.328,4.80902 -8.245,8.44403 -12.44101,7.64203c-3.43201,-0.65601 -7.508,-5.71802 -7.508,-9.323c0,-3.81201 3.18,-6.92304 7.07599,-6.92304c2.94501,0 3.06302,-0.16095 2.76203,-3.75c-0.59702,-7.11096 -7.96103,-12.67895 -16.47202,-12.45599c-6.353,0.16803 -9.23099,1.841 -12.177,7.08301c-2.59,4.60699 -2.87799,11.53802 -0.698,16.755c2.35401,5.63404 9.082,12.97998 13.51199,14.75202c4.57602,1.83099 5.499,3.90698 1.18802,2.67102c-11.24801,-3.22705 -21.108,-16.39105 -21.168,-28.26502c-0.03302,-6.58801 -3.46099,-9.78503 -10.513,-9.80401c-2.75601,-0.008 -5.958,-0.26801 -7.11599,-0.57898c-1.69803,-0.456 -3.00601,0.63196 -6.75,5.61297c-3.90201,5.19001 -4.64401,6.888 -4.64401,10.62201c0,3.917 0.56201,5.04901 4.75,9.55402c5.78201,6.22198 17.781,15.26697 23.76498,17.91296c6.09802,2.698 6.893,4.34302 1.76602,3.65503c-8.47302,-1.13598 -17.17199,-6.47198 -27.651,-16.95898c-5.42801,-5.43305 -11.24899,-10.591 -12.93402,-11.46301c-7.78699,-4.02601 -26.07098,1.54199 -30.67198,9.341c-2.94501,4.99097 -2.64501,6.31695 1.42599,6.31695c6.67101,0 14.16001,2.258 25.55001,7.70301c23.63998,11.302 38.20498,17.06305 47,18.59002c7.00601,1.21698 19.932,0.62201 25.09298,-1.15399l0,0.00001zm104.151,-1.87403c0.69101,-0.54297 2.86301,-1.23401 4.827,-1.53497c1.96402,-0.30103 7.139,-2.20502 11.5,-4.232c4.36102,-2.026 10.62902,-4.93701 13.92901,-6.46801c15.84699,-7.35102 24.76599,-10.03003 33.384,-10.03003c3.91401,0 7.116,-0.23999 7.116,-0.53296c0,-4.21704 -10.27099,-16.46704 -13.806,-16.46704c-0.987,0 -2.25601,-0.46198 -2.82101,-1.02698c-0.564,-0.565 -3.375,-1.30499 -6.246,-1.64502c-8.874,-1.05097 -11.82599,0.60101 -23.58399,13.19403c-8.27701,8.86499 -11.77398,11.849 -16.75201,14.29297c-6.29498,3.09003 -11.79099,4.88605 -11.79099,3.85205c0,-0.30304 2.81202,-2.039 6.25,-3.85901c7.42002,-3.92804 19.676,-15.62103 22.46799,-21.43603c2.49402,-5.19397 2.09601,-8.95398 -1.71399,-16.18201c-1.64999,-3.13001 -3.00101,-6.25299 -3.00201,-6.94c-0.00299,-1.61499 0.05102,-1.62098 -8.34699,0.88202c-3.935,1.17199 -8.15301,3.03698 -9.37298,4.143c-2.36301,2.14398 -4.71302,8.44202 -5.82303,15.60303c-0.81598,5.26697 -3.53699,10.289 -8.37198,15.45398c-4.358,4.656 -7.99002,6.66797 -12.038,6.66797c-4.14602,0 -3.84402,-1.58295 0.581,-3.04401c4.18399,-1.37994 10.45099,-6.72296 13.25998,-11.30298c1.06402,-1.73401 2.25601,-5.40301 2.65002,-8.15301c0.39398,-2.75 0.84399,-5.71601 1,-6.58997c0.48599,-2.729 -3.241,-9.67102 -6.207,-11.55902c-1.55801,-0.99298 -3.12201,-2.21198 -3.474,-2.70996c-0.797,-1.12604 -7,-0.01905 -11.24802,2.00696c-3.384,1.61401 -7.61099,6.91998 -7.61099,9.55499c0,0.86902 1.163,1.87201 2.586,2.229c7.08301,1.77802 9.93799,10.43701 4.77899,14.495c-3.30899,2.60302 -9.99798,2.73102 -12.96798,0.24804c-3.31501,-2.77099 -4.39701,-5.62103 -4.39701,-11.57904c0,-9.70996 5.073,-16.39099 16.95099,-22.32501c5.245,-2.61999 6.28702,-2.77099 19.04901,-2.76196c13.77799,0.01001 17.10901,0.68298 29.20999,5.90399c1.80903,0.78101 5.09,2.19202 7.29001,3.13501c2.20002,0.94299 5.77201,2.55597 7.93799,3.58301c2.16501,1.02795 4.28302,1.86896 4.70502,1.86896c0.422,0 3.82498,1.41204 7.56198,3.13903c3.737,1.72602 8.595,3.948 10.79501,4.93799c18.31201,8.23499 48.37601,8.07099 62.27799,-0.341c15.75201,-9.53003 22.84302,-21.22803 23.94299,-39.495c0.67304,-11.17401 -3.85498,-21.557 -13.52997,-31.02801c-6.99103,-6.84302 -12.71704,-9.65796 -23.19104,-11.40302c-15.11896,-2.51794 -22.76495,-1.203 -36.99096,6.36304c-5.23002,2.78198 -11.93201,6.91797 -14.89402,9.19202c-17.48898,13.42895 -25.23098,17.63495 -32.462,17.63495c-3.00498,0 -8.76398,2.89502 -5.90299,2.96802c0.68701,0.01702 1.25199,0.59399 1.254,1.28198c0.00699,1.75604 5.54199,7.46405 8.94501,9.22302c4.695,2.42798 11.42199,3.56702 15.00198,2.54102c3.72,-1.06702 6.43402,-3.75501 11.922,-11.80701c6.29101,-9.22901 19.435,-20.05603 28.01803,-23.07898c2.81299,-0.99103 5.41297,-2.10004 5.77796,-2.46503c0.36505,-0.36499 1.26404,-0.66302 1.99701,-0.66302c2.935,0 0.97802,1.70703 -6.04596,5.27502c-16.56803,8.41498 -32.88403,30.094 -28.12103,37.36499c0.80099,1.22101 2.82199,3.02704 4.49401,4.01404c1.67099,0.98798 3.594,3.07196 4.27198,4.63098c1.009,2.31702 1.69201,2.73499 3.73501,2.284c1.375,-0.30402 4.64899,-0.99603 7.27701,-1.53998c2.62699,-0.54303 5.62396,-1.44104 6.65997,-1.99603c2.04603,-1.09497 3.21003,-6.03803 2.95099,-12.53302c-0.19494,-4.89997 1.76801,-11.823 4.67902,-16.5c2.25104,-3.61597 12.04602,-13 13.57098,-13c1.65406,0 0.82202,1.27502 -4.78198,7.32904c-8.979,9.698 -11.23596,17.03198 -7.815,25.39996c2.12604,5.203 5.23498,7.18903 11.677,7.45801c4.25598,0.17804 6.07099,-0.25696 8.60999,-2.065c2.961,-2.10797 7.17199,-8.61701 7.17199,-11.08496c0,-0.57404 -1.79998,-2.66901 -4,-4.65601c-3.10498,-2.80499 -4,-4.34204 -4,-6.86304c0,-8.06201 8.30903,-11.29901 14.80506,-5.768c3.63598,3.09503 6.59296,12.15301 5.672,17.37701c-2.21302,12.56299 -14.823,23.396 -30.15705,25.90802c-14.513,2.37702 -33.70099,0 -44.49698,-5.513c-1.828,-0.93298 -5.85101,-2.52002 -8.94101,-3.526c-3.08999,-1.00598 -7.815,-2.92102 -10.5,-4.25598c-4.543,-2.25806 -19.24899,-7.92804 -27.44098,-10.58002c-11.16702,-3.61401 -31.91302,-3.89898 -41.44101,-0.56903c-13.902,4.85901 -23.78799,17.29602 -27.02999,34.00104c-1.23999,6.38995 -1.197,7.828 0.432,14.50598c3.926,16.09802 12.06699,26.052 25.366,31.01599c4.48099,1.67304 7.13199,1.89502 18.47598,1.54602c7.28501,-0.22302 13.81,-0.85101 14.5,-1.39502zm-60.405,-66.11596c4.14902,-3.875 3.21802,-7.90802 -2.53699,-10.98804c-3.58099,-1.91602 -9.315,1.32098 -9.28799,5.24402c0.03299,4.64898 2.94498,7.69299 8.13,8.49499c0.35398,0.055 2.017,-1.18298 3.69498,-2.75097zm216.43301,-9.948c2.32502,-2.09003 6.07001,-4.60205 8.32099,-5.58203c2.97504,-1.29499 4.54498,-2.80597 5.74701,-5.52997c0.90997,-2.06201 2.82898,-4.37702 4.26501,-5.14606c1.43598,-0.76794 3.95801,-3.35498 5.60401,-5.74798l2.99395,-4.35102l-7.85199,0.68006c-5.46698,0.47296 -10.66101,0.19299 -17.10199,-0.92304c-11.41998,-1.97699 -10.60296,-2.031 -9.85101,0.64899c1.42902,5.09503 1.82404,19.547 0.633,23.15503c-2.44,7.39398 0.75201,8.62597 7.24103,2.79602l-0.00001,0zm-436.027,-11.06c-0.497,-12.27002 -0.403,-13.117 2.061,-18.5c1.42101,-3.10303 2.42,-5.64105 2.22099,-5.64105c-0.19899,0 -2.40599,0.87604 -4.90499,1.94702c-7.112,3.04901 -13.805,3.88702 -23.33,2.92102c-4.741,-0.48004 -8.805,-0.68903 -9.03,-0.46399c-0.664,0.66394 2.4,5.87695 5.172,8.80194c1.411,1.48804 2.566,3.38202 2.566,4.20801c0,2.367 7.23599,9.35699 10.522,10.16504c2.887,0.70898 7.478,4.63196 7.478,6.38898c0,0.84503 4.381,2.79602 6.633,2.953c0.815,0.05603 0.987,-3.53302 0.612,-12.77997zm250.255,-0.68304c19.85901,-3.33197 31.76801,-6.78699 51.5,-14.94098c21.66001,-8.95203 39.67401,-18.711 50.06299,-27.12403c11.35599,-9.19598 27.01102,-23.35595 31.19504,-28.21698c2.21295,-2.57202 4.32696,-4.901 4.69598,-5.17602c0.54401,-0.40601 12.35199,-14.64996 17.46301,-21.06598c6.54999,-8.22299 19.14698,-32.009 24.59198,-46.43399c1.245,-3.30002 3.06403,-8.02499 4.04102,-10.5c0.97699,-2.47501 2.099,-6.30002 2.49396,-8.5c0.39404,-2.20001 1.11902,-4.51102 1.612,-5.134c0.49304,-0.624 1.53503,-4.44901 2.315,-8.5c0.78101,-4.05201 2.10803,-10.31302 2.94904,-13.913c1.56396,-6.698 1.94799,-10.505 3.169,-31.453c0.94995,-16.28702 0.94196,-16.95599 -0.40503,-33.67401c-1.65997,-20.60001 -6.867,-42.10401 -14.60998,-60.32599c-4.81104,-11.323 -13.69299,-29.31001 -16.43103,-33.27101c-2.98096,-4.31299 -10.14301,-16.12399 -10.14301,-16.726c0,-1.979 -18.20398,-23.59999 -29,-34.446c-8.07495,-8.11099 -26.89495,-23.14099 -31.74197,-25.35c-1.242,-0.56499 -2.258,-1.406 -2.258,-1.868c0,-0.46199 -0.48001,-0.83899 -1.06701,-0.83899c-0.58698,0 -2.499,-1.08701 -4.25,-2.414c-3.08399,-2.33901 -21.04798,-11.606 -29.18299,-15.056c-18.16,-7.70001 -43.54501,-15.043 -60,-17.358c-42.112,-5.92201 -84.49701,-0.81401 -120.36898,14.50799c-35.55602,15.187 -56.70902,29.157 -81.18902,53.62101c-14.369,14.35899 -30.306,35.47299 -35.596,47.16c-0.75699,1.67099 -1.803,3.71399 -2.32399,4.539c-2.004,3.16899 -11.02301,22.957 -11.028,24.19598c-0.004,0.71701 -0.623,2.48502 -1.377,3.92902c-1.74901,3.353 -7.28202,20.84 -8.66001,27.375c-0.58,2.75 -1.461,6.79999 -1.958,9c-2.91401,12.90799 -5.21,36.51898 -4.669,48c0.31099,6.60001 0.78,13.125 1.041,14.5c0.262,1.375 0.76999,5.64999 1.129,9.5c0.91699,9.81198 5.31999,33.18201 7.59999,40.33499c6.09002,19.10199 12.69301,33.97101 23.125,52.07102c16.00301,27.76498 27.27301,41.48898 48.46701,59.01901c12.355,10.21997 10.463,8.77197 20.10601,15.37597c26.013,17.81501 59.846,31.89502 88.20199,36.70502c4.125,0.69995 9.99399,1.823 13.04199,2.49597c3.04801,0.67304 10.01401,1.31299 15.48002,1.42401c5.46499,0.10999 10.17199,0.44501 10.458,0.74402c0.95099,0.99598 32.37998,-0.67901 41.51999,-2.21203zm207.884,-20.64002c2.263,-0.64996 5.31,-2 6.77002,-3c1.45997,-1 3.10096,-1.81799 3.646,-1.81799c0.54498,0 4.107,-3.08496 7.91498,-6.85596c5.95599,-5.89703 8.79101,-9.98901 13.38702,-19.32202c0.49396,-1.00299 1.32801,-2.685 1.85401,-3.73901c1.88696,-3.78199 3.27795,-15.448 2.73498,-22.94501c-1.50702,-20.80997 -2.62701,-24.26599 -17.93103,-55.32498c-12.61798,-25.60901 -12.89898,-26.43799 -13.36297,-39.44199c-0.29303,-8.22302 -0.01703,-12.03702 1.05798,-14.61002c0.79999,-1.91598 1.677,-4.70898 1.94904,-6.20898c0.48297,-2.66101 0.97595,-3.47 5.09594,-8.366c5.89002,-7.001 17.05805,-9.26001 25.89105,-5.23602c5.375,2.448 6.34498,3.63702 6.737,8.25501c0.35999,4.24499 -3.01605,9.79501 -5.95904,9.79501c-3.27899,0 -7.10095,-2.478 -8.86896,-5.75c-1.94403,-3.60001 -3.44,-3.926 -8.43603,-1.83801c-3.98999,1.66699 -7.86402,8.65301 -7.86402,14.181c0,4.40802 3.93604,9.83999 8.20905,11.33001c10.19397,3.55298 24.51996,-2.634 32.09796,-13.863c0.906,-1.34201 1.948,-2.13901 2.31604,-1.77002c0.90698,0.906 -3.99402,8.16302 -7.93103,11.74502c-4.151,3.776 -7.47901,5.34 -17.534,8.24298c-10.55298,3.047 -12.22497,4.689 -12.76196,12.534c-0.39606,5.78201 -0.26105,6.216 2.84399,9.18701c4.79798,4.59 10.22595,7.16199 13.508,6.40201c8.19397,-1.89902 20.53601,-13.52301 25.79596,-24.29401c1.62604,-3.32901 3.518,-6.065 4.20599,-6.07998c1.67304,-0.03702 1.74701,-0.27103 -2.39496,7.57199c-5.39703,10.22101 -8.36401,14.17898 -16.22601,21.64898c-9.85602,9.36402 -12.14203,13.26001 -12.33697,21.02201c-0.24805,9.892 6.33795,21.759 13.16198,23.71701c3.66999,1.052 3.52399,1.30499 4.987,-8.66501c1.138,-7.74399 4.38599,-16.45999 10.555,-28.32199c4.13201,-7.94501 7.98199,-16.53501 9.63397,-21.5c0.55005,-1.65 1.40503,-3.758 1.90204,-4.685c3.50598,-6.54202 3.591,-30.83002 0.13299,-37.974c-1.19104,-2.46002 -2.16504,-4.91202 -2.16504,-5.448c0,-0.53601 -3.03796,-4.20102 -6.75,-8.14502c-5.42895,-5.767 -8.31695,-7.89898 -14.75,-10.88598c-6.72094,-3.12 -9.039,-3.706 -14.5,-3.663c-16.56494,0.13098 -31.82397,9.29898 -38.12194,22.90598c-3.61603,7.81302 -4.91706,13.48102 -5.581,24.315c-0.888,14.48801 2.41095,28.16202 11.35895,47.08002c1.95105,4.125 4.58301,10.19998 5.849,13.5c1.26501,3.29998 3.099,7.79998 4.07501,10c0.97504,2.19998 1.87,4.44998 1.987,5c0.11804,0.54998 0.96204,3.854 1.875,7.34298c2.13001,8.13602 2.00604,27.456 -0.21899,34.08002c-1.97303,5.87396 -8.94202,16.539 -13.87799,21.237c-11.198,10.65997 -31.34504,6.34497 -31.34504,-6.71301c0,-5.91602 0.69605,-7.25202 4.89606,-9.39502c6.76099,-3.44898 12.10394,-0.31 12.10394,7.11102c0,2.04498 0.42005,3.97803 0.93402,4.29602c0.51404,0.31696 2.73999,-0.14599 4.948,-1.02899c6.72803,-2.69202 11.409,-10.75903 10.52204,-18.13104c-0.76404,-6.33899 -1.30402,-7.10297 -6.99305,-9.88599c-4.51397,-2.20898 -6.34899,-2.58099 -10.37896,-2.104c-5.32801,0.63098 -11.94202,3.59997 -15.13599,6.79498c-1.112,1.11102 -2.52002,1.854 -3.12903,1.651c-1.89801,-0.63196 10.14099,-9.651 14.54901,-10.89801c2.30097,-0.651 7.33399,-1.11096 11.18396,-1.02099c11.33106,0.26501 12.77204,-0.80799 13.875,-10.33597c0.25501,-2.20001 0.77704,-5.23801 1.16102,-6.75c0.505,-1.995 0.32202,-2.75601 -0.66999,-2.77201c-0.75097,-0.01199 -2.59198,-1.755 -4.09002,-3.87399c-2.75495,-3.89599 -7.95899,-7.104 -11.52198,-7.104c-3.27398,0 -13.98102,7.63199 -23.09002,16.45898c-4.75898,4.612 -8.823,8.215 -9.02997,8.008c-0.20801,-0.207 0.77099,-2.336 2.17401,-4.72998c3.06799,-5.23502 14.12298,-16.18701 21.63696,-21.435c2.99402,-2.091 6.26502,-5.20801 7.26703,-6.92502c2.32398,-3.98099 2.95801,-12.84198 1.27002,-17.75198c-1.21503,-3.53302 -9.41901,-12.625 -11.393,-12.625c-1.17505,0 -2.08905,2.56399 -2.08905,5.85898c0,2.686 -4.39899,12.082 -8.06897,17.237c-1.06202,1.492 -1.93103,2.98703 -1.93103,3.32302c0,0.336 -2.18,3.642 -4.844,7.34598c-2.664,3.70401 -5.69696,8.31 -6.73895,10.23502c-1.04205,1.92499 -2.42902,4.17499 -3.08106,5c-5.57696,7.05398 -11.09594,25.51498 -10.08697,33.741c0.98999,8.07299 3.93701,18.927 6.531,24.05499c4.625,9.143 14.55402,17.84997 23.61902,20.711c5.26899,1.664 17.68799,1.83203 22.98499,0.31097l-0.00001,0zm-460.20602,-8.70294c7.772,-3.86304 16.87201,-12.52301 20.04401,-19.07404c2.968,-6.13098 4.065,-12.05096 4.08499,-22.04101c0.02101,-10.52698 -1.109,-15.33197 -5.153,-21.90299c-1.735,-2.81998 -3.15399,-5.31399 -3.15399,-5.54199c0,-0.228 -1.80001,-3.12399 -4,-6.43601c-2.2,-3.31198 -4,-6.32901 -4,-6.70401c0,-0.37597 -2.90401,-5.02999 -6.452,-10.34298c-3.54901,-5.314 -7.709,-12.90399 -9.246,-16.86701c-1.55701,-4.014 -3.39301,-7.20498 -4.14701,-7.20498c-0.74499,0 -3.31399,2.07498 -5.71,4.612c-3.416,3.61599 -4.493,5.613 -4.98999,9.25c-0.34801,2.54998 -0.77101,5.557 -0.94,6.681c-0.67201,4.46298 1.999,7.858 9.35099,11.88598c7.883,4.318 18.50701,13.46402 20.81,17.914c0.80901,1.56302 1.28301,3.03 1.054,3.26001c-0.22999,0.23001 -3.522,-2.53701 -7.31599,-6.14901c-10.77201,-10.254 -23.515,-15.51999 -30.57801,-12.63398c-3.08599,1.26099 -10.124,10.12098 -9.096,11.45099c0.52201,0.676 1.504,3.254 2.181,5.72901c1.70701,6.23599 4.14901,7.74099 13.13601,8.09598c7.20699,0.285 8.94499,0.67901 15.538,3.518c5.09799,2.19501 10.78599,7.96399 9.93499,10.07599c-0.686,1.69904 -0.779,1.68701 -1.51699,-0.19c-2.342,-5.95099 -20.271,-12.25397 -27.278,-9.58997c-2.86501,1.08899 -7.54801,8.32398 -8.70301,13.44501c-0.95099,4.21899 3.015,14.30499 6.70701,17.05597c1.411,1.05102 4.746,2.12103 7.411,2.37701l4.846,0.466l-0.59401,-5.87701c-0.51799,-5.13397 -0.319,-6.16699 1.58,-8.16998c2.95,-3.10999 9.11101,-2.56903 12.804,1.12396c6.79401,6.79401 -0.341,18.42004 -12.078,19.68005c-8.37199,0.89899 -14.01299,-1.289 -20.408,-7.914c-6.28299,-6.50903 -9.01099,-12.48303 -10.37199,-22.71301c-2.15601,-16.198 -0.316,-24.703 10.158,-46.95001c1.052,-2.23599 1.914,-4.51901 1.914,-5.073c0,-0.55399 1.29,-3.67401 2.86699,-6.93399c9.15701,-18.92801 11.13101,-24.07101 13.729,-35.758c1.41101,-6.34802 1.532,-8.71502 0.638,-12.5c-0.606,-2.56802 -1.39,-6.42501 -1.74199,-8.57101c-0.352,-2.146 -2.011,-7.69199 -3.687,-12.32401c-5.606,-15.49298 -16.471,-24.298 -32.13571,-26.04498c-21.15229,-2.358 -33.29939,4.97498 -44.19229,26.67999c-1.9125,3.81101 -3.4773,7.79001 -3.4773,8.84299c0,1.05301 -0.3033,2.21701 -0.6739,2.58801c-0.808,0.80799 -1.10481,3.80301 -1.3159,13.27701c-0.2341,10.51099 2.266,19.107 10.43639,35.883c8.39581,17.23801 12.109,27.099 14.97551,39.772c0.5286,2.33698 0.91999,2.61499 2.4942,1.772c2.7341,-1.46301 9.6542,-8.212 10.9048,-10.63601c1.81568,-3.51801 4.14889,-10.79099 4.16429,-12.98001c0.02811,-3.999 -3.046,-10.991 -6.5686,-14.94098c-15.4688,-17.34101 -18.9222,-21.95902 -19.96219,-26.694c-0.33471,-1.52402 -1.02391,-3.02701 -1.5316,-3.34101c-1.20641,-0.746 -1.19851,-4.45199 0.00959,-4.45199c0.5129,0 1.24041,1.01199 1.61671,2.25c2.0784,6.83499 15.10179,23.24298 22.12359,27.87198c3.83419,2.52801 6.3078,2.35501 10.3828,-0.728c1.89431,-1.43399 4.9068,-3.23999 6.6946,-4.01398l3.25,-1.40701l0,-7.522c0,-10.04999 -1.24899,-11.845 -10.06549,-14.47101c-9.7291,-2.89697 -18.4297,-7.46198 -20.93871,-10.98599c-3.4031,-4.77899 -1.8954,-5.32199 2.6783,-0.965c4.67561,4.45499 12.9317,8.97101 16.39981,8.97101c5.48429,0 12.3311,-4.065 14.77708,-8.77301c1.27102,-2.44699 -0.10799,-11.20999 -2.28199,-14.50299c-3.143,-4.76001 -10.5693,-8.83499 -10.5693,-5.801c0,0.508 -1.16499,2.30799 -2.5889,4c-3.85029,4.57599 -8.471,4.33499 -11.37839,-0.59201c-2.5593,-4.33801 -2.14281,-7.057 1.74809,-11.41198c2.3234,-2.60102 3.65721,-3.14902 8.7928,-3.61402c7.05341,-0.64001 9.9407,0.51599 16.0167,6.413c5.65801,5.49099 9.92,17.18899 9.75601,26.78201c-0.191,11.202 -3.46701,22.508 -11.01901,38.03101c-3.75499,7.71698 -8.13551,18.06698 -9.73441,23c-1.5989,4.93298 -3.29238,9.86898 -3.76318,10.96899c-1.40572,3.28299 -5.81332,25.71399 -5.8218,29.62698c-0.01171,5.34699 2.93419,17.58301 5.74769,23.87299c4.72151,10.55505 5.2798,11.53003 9.2517,16.16205c6.96999,8.12799 18.251,11.87298 34.493,11.45398c5.694,-0.14801 8.24601,-0.80103 13.678,-3.50098zm-79.97829,-157.31503c-1.41121,-1.41199 -1.5683,-2.79999 -0.31671,-2.79999c0.4859,0 1.11881,0.89999 1.4064,2c0.6104,2.33398 0.51481,2.40399 -1.08969,0.79999zm475.22234,136.63497c4.21594,-4.216 -0.22705,-12.43499 -6.72205,-12.43499c-5.88098,0 -8.68701,5.237 -5.888,10.99102c2.54303,5.22797 8.18,5.87403 12.61005,1.44397zm-352.78301,-2.55096c0.91201,-0.75702 1.349,-2.55902 1.16102,-4.79199c-0.23301,-2.771 -0.92402,-3.87604 -3.06601,-4.89801c-6.75602,-3.22199 -12.95701,4.58697 -7.99601,10.06897c1.904,2.10303 7.152,1.90204 9.901,-0.37897zm-143.29159,-159.45001c4.3736,-6.29999 10.9369,-11.81799 20.252,-17.02701c5.654,-3.16199 7.40881,-5.40698 4.22601,-5.40698c-0.58102,0 -4.42251,-1.577 -8.53661,-3.50302c-7.7779,-3.64298 -19.3247,-13.81 -21.1828,-18.65198l-0.9003,-2.345l-1.1888,3c-0.6539,1.64999 -1.2081,5.475 -1.2315,8.5c-0.0235,3.02499 -0.3883,5.94998 -0.8109,6.5c-0.4225,0.54999 -1.3269,2.88199 -2.0097,5.18298c-1.1245,3.788 -1.0343,4.534 0.9572,7.909c1.7343,2.94 2.0726,4.65802 1.6012,8.134c-0.461,3.39902 -0.0915,5.41901 1.6167,8.84c1.2179,2.43802 2.4721,4.42801 2.7871,4.42203c0.315,-0.00702 2.3042,-2.50602 4.4204,-5.55402zm643.34261,-6.10199c-0.435,-4.254 -0.18897,-5.47601 1.39105,-6.905c2.48999,-2.254 2.43597,-6.49301 -0.14801,-11.55801c-1.63904,-3.21299 -1.86304,-4.633 -1.081,-6.875c0.54096,-1.55301 0.83899,-2.97501 0.66095,-3.159c-0.177,-0.185 -0.60199,-2.10901 -0.94299,-4.27701c-0.341,-2.168 -0.841,-4.16199 -1.10998,-4.43198c-0.27002,-0.27002 -2.396,1.44999 -4.72498,3.82099c-5.89502,6.00201 -13.13501,11.31201 -20.48505,15.02399c-3.43798,1.73602 -6.25,3.34002 -6.25,3.56301c0,0.224 2.45301,1.568 5.45203,2.986c6.05798,2.86599 19.21802,14.591 22.70001,20.225l2.24799,3.63901l1.41003,-3.44202c0.89996,-2.19799 1.21796,-5.311 0.87995,-8.60998zm-572.79702,-7.332c0.40102,0 1.75101,-0.95102 2.99802,-2.11402c5.56599,-5.18499 -3.07501,-14.30398 -9.13101,-9.63598c-1.682,1.29599 -2.08,2.673 -1.879,6.5c0.152,2.88098 3.81799,6.57898 5.778,5.82699c0.827,-0.31799 1.833,-0.57699 2.23399,-0.57699zm496.47206,-2.073c3.09101,-2.431 3.28296,-4.57001 0.69098,-7.677c-2.63299,-3.15702 -7.49597,-3.03501 -9.643,0.242c-1.88202,2.871 -1.198,7.508 1.10602,7.508c0.81396,0 1.48095,0.44998 1.48095,1c0,1.707 3.60205,1.1 6.36505,-1.073zm-519.10164,-11.96802c3.097,-0.573 7.79261,-2.23898 10.43362,-3.70398c7.31097,-4.05301 15.90598,-13.173 19.27599,-20.45401c4.82799,-10.431 6.117,-27.517 3.00201,-39.80099c-0.48801,-1.92502 -1.12302,-4.85001 -1.41103,-6.5c-1.542,-8.83301 -4.40499,-16.887 -13.50798,-38c-0.475,-1.10001 -2.23001,-6.05001 -3.902,-11c-6.96899,-20.63501 -7.315,-23.99102 -4.155,-40.26601c2.696,-13.88499 6.716,-20.16701 16.501,-25.784c4.257,-2.443 6.11298,-2.876 12.50001,-2.91c5.66999,-0.03101 8.15799,0.40601 10.19899,1.791c2.503,1.69901 5.05899,6.85899 5.385,10.873c0.198,2.43401 -4.60201,7.5 -7.774,8.205c-3.836,0.853 -8.155,-2.996 -8.03601,-7.162c0.14701,-5.174 -4.13199,-5.352 -10.58299,-0.44c-4.498,3.42599 -6.191,7.09801 -6.191,13.431c0,10.149 7.11699,14.785 19.50001,12.703c8.06298,-1.356 10.24498,-2.474 15.33497,-7.85699c4.25903,-4.50402 4.32402,-4.53202 3.681,-1.584c-0.35997,1.64999 -2.086,4.502 -3.83497,6.33699c-5.33802,5.6 -9.722,7.235 -21.809,8.12899c-6.47901,0.48002 -11.54301,1.34601 -12.49801,2.138c-0.88199,0.73201 -3.058,4.37601 -4.836,8.097l-3.232,6.76601l5.139,3.53999c6.105,4.20401 11.50201,5.88001 15.86999,4.929c8.775,-1.91 21.916,-12.20399 28.278,-22.14999c1.874,-2.929 3.40702,-5.767 3.40702,-6.306c0,-0.539 0.44999,-0.98 1,-0.98c0.54998,0 1,-1.152 1,-2.559c0,-1.40801 0.41198,-2.304 0.91697,-1.993c1.34201,0.83 -0.60898,7.036 -4.22899,13.45c-4.48999,7.955 -14.875,18.569 -21.03299,21.49699c-7.02301,3.338 -11.62198,8.013 -11.77903,11.97301c-0.49595,12.523 0.64203,16.65199 6.19001,22.459c3.50702,3.66998 3.94702,3.49301 5.79499,-2.327c1.51902,-4.78201 8.02704,-18.16801 10.13903,-20.85301c0.82499,-1.04799 2.56798,-3.086 3.87301,-4.52699c2.67997,-2.959 15.084,-21.769 15.89399,-24.10001c0.28997,-0.836 1.44097,-3.54501 2.557,-6.01999c2.95999,-6.56401 2.83402,-22.035 -0.253,-31c-4.76603,-13.84201 -10.57601,-21.07901 -20.571,-25.625c-5.32202,-2.421 -7.24301,-2.737 -17,-2.802c-15.53,-0.104 -22.877,2.894 -33.754,13.77199c-9.1995,9.19899 -14.90141,27.59601 -14.1501,45.65501c0.38679,9.29599 2.74109,21.502 4.97259,25.78c0.78041,1.49599 1.42171,3.182 1.42511,3.747c0.0034,0.565 2.73531,7.08999 6.0714,14.50001c12.062,26.797 16.527,43.107 14.932,54.54599c-1.971,14.125 -7.858,22.44101 -18.1929,25.69901c-13.0113,4.10199 -21.8043,0.535 -21.8043,-8.845c0,-3.59803 0.4851,-4.56 3.4332,-6.80902c5.1734,-3.94599 9.6967,-3.24198 14.30521,2.22601c2.60059,3.08499 3.97549,2.60699 8.41579,-2.92499c5.541,-6.90301 3.829,-20.33502 -2.88959,-22.677c-5.95721,-2.07703 -16.8759,2.31299 -25.01461,10.05697c-4.6432,4.41901 -4.3674,0.94303 0.3386,-4.26599c3.9246,-4.34399 11.6065,-8.39801 20.8608,-11.009c7.38981,-2.08398 9.1938,-4.427 9.86479,-12.811c0.47701,-5.96799 0.36801,-6.37198 -2.15598,-7.95701c-1.46201,-0.91897 -3.86362,-2.64599 -5.33681,-3.83898c-3.7222,-3.013 -9.07729,-3.86802 -12.54361,-2.003c-6.76999,3.64301 -19.14729,17.70301 -22.65089,25.732c-2.19,5.018 -2.0553,0.44299 0.1515,-5.146c3.469,-8.78601 6.45441,-13.29001 14.14831,-21.346c4.28389,-4.48499 8.30289,-9.137 8.9311,-10.33901c1.49329,-2.85501 1.3898,-16.06099 -0.1529,-19.506c-1.4561,-3.25201 -8.27222,-8.80899 -10.80371,-8.80899c-1.306,0 -2.23441,1.34798 -3.2703,4.75c-0.79559,2.612 -2.0966,6.325 -2.8911,8.25c-2.3261,5.63599 -3.0587,7.46799 -3.1987,8c-0.07231,0.275 -1.1309,2.29999 -2.3524,4.5c-10.2914,18.53501 -12.4612,22.982 -14.6388,30c-3.4083,10.98398 -5.271,28.539 -3.8377,36.16901c2.6719,14.224 11.4687,26.233 23.0578,31.478c10.16368,4.599 19.03189,5.746 29.49361,3.81198l-0.00002,0zm561.17562,-1.556c3.26599,-0.802 7.79199,-2.63098 10.05603,-4.06399c8.37695,-5.29901 17.78198,-21.93399 18.81696,-33.28c0.65301,-7.163 -0.87201,-22.827 -2.63501,-27.05899c-0.344,-0.82501 -1.08497,-3.62 -1.646,-6.211c-0.97095,-4.474 -3.42596,-10.289 -6.66699,-15.789c-0.81,-1.375 -2.11701,-3.93201 -2.90399,-5.68201c-0.78602,-1.75 -1.87403,-3.45599 -2.417,-3.791c-2.95703,-1.828 -8.04303,-19.606 -8.04303,-28.115c0,-3.83899 -1.36895,-4.31299 -5.79998,-2.00699c-9.73902,5.067 -14.47297,20.65399 -9.30896,30.64898c2.617,5.06601 8.875,13.789 13.59198,18.94602c3.92102,4.28598 9.28497,13.09298 11.08898,18.20398c1.69202,4.79501 1.20398,4.80801 -1.67901,0.04602c-2.95795,-4.88602 -9.73798,-13.70902 -14.40997,-18.75c-7.47199,-8.065 -11.51001,-9.206 -17.698,-5c-2.02399,1.375 -4.11701,2.5 -4.65302,2.5c-1.45697,0 -2.57196,12.738 -1.34997,15.42199c1.00396,2.202 1.99096,2.60001 13.71795,5.53101c6.78705,1.69598 17.47705,11.74799 17.49305,16.44998c0.00695,2 -0.753,1.35901 -5.84803,-4.936c-4.026,-4.97299 -14.61297,-9.16498 -20.40496,-8.07797c-5.49805,1.03097 -12.542,6.23498 -13.59302,10.03997c-1.91101,6.91901 0.99701,14.198 7.531,18.849c5.41297,3.85401 9.32196,3.29001 9.32196,-1.345c0,-3.75799 4.18903,-7.93298 7.95905,-7.93298c4.63898,0 10.85296,8.62698 9.65399,13.40298c-0.94501,3.76603 -6.888,9.23801 -10.836,9.97901c-10.466,1.96301 -24.37604,-5.61301 -29.26001,-15.93799c-2.34198,-4.94901 -2.65399,-6.81 -2.60199,-15.526c0.03101,-5.44602 0.46997,-10.69299 0.974,-11.66001c0.50397,-0.96701 1.487,-3.78299 2.185,-6.25799c0.698,-2.47501 3.92102,-10.08301 7.16101,-16.90701c15.09497,-31.79 18.768,-43.59 19.38501,-62.271c0.23297,-7.06101 -0.04901,-12.793 -0.71301,-14.5c-0.60505,-1.552 -1.71802,-5.155 -2.47303,-8.007c-2.20697,-8.323 -7.43298,-18.366 -11.862,-22.79599c-11.70697,-11.70601 -30.25799,-16.291 -43.04199,-10.63601c-8.823,3.903 -20.51599,14.666 -24.768,22.797c-3.93598,7.52699 -7.427,31.173 -4.83899,32.772c0.50799,0.314 1.23401,1.987 1.61401,3.719c0.67298,3.06399 3.69501,8.108 10.98096,18.32901c1.961,2.75 6.03204,9.04999 9.047,14c3.01605,4.94999 5.91101,9.67499 6.43402,10.5c0.98797,1.55798 3.77502,7.776 6.38598,14.25c0.83203,2.06198 2.17603,3.75 2.987,3.75c4.672,0 13.80103,-13.815 13.99402,-21.177c0.125,-4.77102 -2.789,-7.933 -10.807,-11.72501c-8.13202,-3.84599 -15.32001,-9.43601 -20.745,-16.131c-11.276,-13.916 -9.63,-14.604 3.50598,-1.46699c5.22504,5.22499 10.034,9.5 10.68604,9.5c0.65197,0 2.42498,0.88199 3.93896,1.961c1.51502,1.07899 4.72101,2.403 7.12402,2.94299c5.19501,1.16701 8.154,0.00301 14.78602,-5.81799c3.802,-3.336 4.21496,-4.086 3.25,-5.88901c-0.60804,-1.136 -1.10505,-4.74001 -1.10505,-8.009c0,-4.025 -0.47796,-6.34 -1.47894,-7.17099c-0.90704,-0.75301 -5.51501,-1.33001 -11.91803,-1.49302c-10.74103,-0.27398 -15.81201,-1.79199 -21.229,-6.35398c-2.099,-1.767 -5.93,-8.17 -4.88898,-8.17c0.29596,0 3.11999,1.73099 6.276,3.847c11.45996,7.68199 19.86597,8.836 25.60498,3.51399c4.49103,-4.16499 7.40802,-14.147 4.63397,-15.86099c-0.54999,-0.34001 -1,-1.66301 -1,-2.94101c0,-2.845 -5.80798,-7.55899 -9.31195,-7.55899c-1.78302,0 -2.78802,0.82499 -3.70801,3.04699c-1.25201,3.02401 -5.41998,5.95301 -8.47003,5.95301c-2.64099,0 -9.36999,-3.86901 -10.54297,-6.06201c-2.88598,-5.391 3.29102,-13.15 11.44098,-14.372c8.58801,-1.28799 20.19501,3.85401 25.49298,11.29399c6.44306,9.04901 8.74701,18.75901 8.39002,35.36101c-0.172,7.976 -0.78296,11.38699 -3.40399,19c-1.758,5.103 -3.57599,9.429 -4.042,9.612c-0.46502,0.183 -0.84503,1.008 -0.84503,1.832c0,1.42301 -2.60797,7.771 -9.17499,22.33501c-4.37298,9.69699 -4.45001,9.905 -6.64898,18c-4.69397,17.27099 -5.22101,27.26199 -2.04499,38.716c3.84497,13.86899 9.39002,21.38999 20.63398,27.98798c7.24499,4.25201 21.45001,4.94803 34.67401,1.699zm-114.26801,-160.058c3.92798,-3.55499 0.66498,-11.34498 -4.75299,-11.34498c-5.46399,0 -8.29498,6.02099 -5.17798,11.013c1.55701,2.49199 7.331,2.68499 9.93097,0.33198zm-349.697,-2.29599c2.026,-3.918 1.92398,-5.651 -0.474,-8.04899c-3.00502,-3.00501 -7.43602,-2.60102 -9.93202,0.90399c-2.569,3.60699 -2.56798,4.19 0.00401,7.461c3.04201,3.867 8.32201,3.70601 10.40201,-0.316zm348.16203,-19.685c15.07196,-5.052 22.677,-12.029 27.93396,-25.62901c3.48401,-9.01098 3.49603,-18.85699 0.034,-28.05499c-1.336,-3.549 -3.25598,-7.475 -4.26697,-8.723c-9.51501,-11.7572 -16.44202,-16.6842 -28.90198,-20.558c-7.69201,-2.3916 -10.53503,-2.7672 -20.43506,-2.6999c-12.43399,0.0845 -14.40707,0.3043 -23.5,2.6178c-11.29107,2.8726 -16.01001,4.4766 -27,9.17689c-12.18203,5.21021 -20.668,8.3302 -24.48605,9.00421c-1.38293,0.24299 -6.94495,1.35499 -12.36102,2.47c-15.75299,3.242 -25.73398,0.951 -34.63498,-7.9498c-6.12995,-6.1306 -7.63294,-16.06181 -3.608,-23.8458c1.75406,-3.391 6.763,-5.163 11.26498,-3.9851c3.80002,0.9942 5.78809,5.6715 4.86902,11.4542c-0.66895,4.2101 -1.88202,6.0132 -4.63501,6.8867c-4.487,1.4244 0.05301,6.2963 7.59106,8.1439c8.89594,2.1806 15.84995,0.278 18.74301,-5.1276c2.55695,-4.7768 0.21192,-15.55541 -4.47,-20.5449c-2.86306,-3.0518 -5.77301,-7.1804 -5.77301,-8.1911c0,-1.2787 3.37101,0.3656 6.32993,3.0877c3.05807,2.8125 6.87308,10.1952 8.58002,16.6034c0.58606,2.2 2.08307,5.2259 3.328,6.7243c2.36706,2.8514 4.05804,3.1932 14.418,2.9144c4.987,-0.13421 5.27405,-0.3027 8.75,-5.141c1.97699,-2.7513 3.59405,-5.7357 3.59405,-6.632c0,-6.0287 -16.37799,-21.1433 -27.082,-24.9922c-5.15005,-1.8521 -7.74099,-3.8837 -6.51602,-5.1092c1.09702,-1.0968 14.66702,3.8304 19.59802,7.1156c5.17801,3.45 15.64594,13.9289 16.45194,16.4692c0.83706,2.6366 5.47,4.84939 11.54806,5.5148c4.84598,0.5306 6.249,0.2267 11.79996,-2.5559c5.75998,-2.88761 12.20004,-8.5752 12.20004,-10.7754c0,-1.1527 -1.91607,-1.71191 -10.42401,-3.0432c-6.06998,-0.9497 -16.142,-4.3519 -17.57599,-5.9368c-0.27505,-0.3039 -2.07507,-1.3298 -4,-2.2798c-1.92499,-0.9499 -5.52505,-2.9387 -8,-4.4195c-6.56704,-3.9288 -14.06704,-7.5309 -17.5,-8.4044c-1.65005,-0.4198 -6.60006,-1.7312 -11,-2.9144c-10.83807,-2.9141 -23.08499,-2.9101 -30.89007,0.0101c-5.94098,2.2229 -14.61692,8.7742 -20.50193,15.4822c-10.707,12.2035 -11.845,30.5138 -2.85305,45.9106c4.80706,8.229 7.20205,10.602 15.25106,15.103c15.30298,8.558 30.207,8.443 62.99399,-0.487c3.79996,-1.036 6.315,-2.052 15,-6.063c10.15198,-4.689 18.16699,-7.604 27.64499,-10.0535c11.04395,-2.8542 28.12204,-2.3379 37.35501,1.1295c15.92102,5.979 24.68006,21.587 20.30701,36.18401c-2.34296,7.81999 -10.25995,12.23799 -17.43201,9.72599c-3.33996,-1.16999 -7.375,-6.578 -7.375,-9.884c0,-5.502 5.35803,-10.492 11.336,-10.558c2.69,-0.02901 3.21106,-0.442 3.47803,-2.759c0.242,-2.099 -0.76099,-3.873 -4.36499,-7.726c-5.06,-5.41 -8.73401,-6.78101 -15.00904,-5.604c-3.03295,0.569 -3.84698,1.33699 -5.5,5.194c-2.58197,6.023 -2.44598,10.555 0.59302,19.86599c1.39301,4.269 2.289,8.006 1.98999,8.30501c-1.005,1.00499 -3.43298,-3.261 -5.58197,-9.81c-1.789,-5.453 -2.02398,-7.806 -1.46002,-14.6l0.67304,-8.099l-3.47803,-1.651c-1.91303,-0.90801 -4.99802,-1.65 -6.8551,-1.65c-1.85694,0 -4.31394,-0.657 -5.45993,-1.46c-1.944,-1.361 -2.46204,-1.10701 -7.72199,3.788c-4.70306,4.377 -5.63901,5.809 -5.63901,8.625c0,3.736 6.23896,16.02 11.45194,22.547c3.93307,4.924 4.99701,7.5 3.09707,7.5c-1.31805,0 -9.71402,-10.703 -12.54299,-15.98901c-0.72702,-1.35799 -1.81305,-2.987 -2.41401,-3.618c-0.60104,-0.632 -1.76699,-2.154 -2.59201,-3.38199c-0.82501,-1.22901 -3.26599,-3.364 -5.42498,-4.746c-3.39502,-2.173 -4.71106,-2.44001 -9.75107,-1.98301c-7.11093,0.64501 -13.79193,4.305 -17.31198,9.48501c-1.38202,2.03299 -2.51197,4.18799 -2.51197,4.788c0,0.6 2.753,1.604 6.11899,2.22999c8.02094,1.491 16.92896,5.79901 24.47702,11.838c12.43799,9.949 21.27899,16.60101 24.052,18.095c12.97303,6.99101 22.982,8.00501 35.98804,3.64601zm-323.13603,-3.872c8.94298,-3.08201 18.73398,-8.25701 33,-17.443c20.44597,-13.164 19.73598,-12.841 30.74998,-13.972c3.42801,-0.352 -6.893,-11.394 -12.73599,-13.625c-2.36502,-0.903 -6.64801,-1.712 -9.517,-1.797c-5.061,-0.151 -5.352,-0.006 -9.74899,4.845c-2.49301,2.75 -5.57402,6.64699 -6.84602,8.659c-2.836,4.48599 -12.82399,14.84101 -14.31598,14.84101c-1.94301,0 -1.17601,-1.388 4.84099,-8.74901c3.25801,-3.98599 7.10899,-9.67 8.55801,-12.631c3.243,-6.62801 2.713,-9.375 -3.069,-15.909l-4.084,-4.616l-4.916,1.457c-8.61801,2.553 -11.151,4.385 -12.28401,8.883c-0.56299,2.235 -1.23001,6.877 -1.483,10.315c-0.66199,9.004 -6.89101,19.20499 -13.99199,22.913c-4.12601,2.15399 -4.644,0.66 -0.81102,-2.34c1.80702,-1.414 4.42302,-4.373 5.81302,-6.576c2.61398,-4.14 6.27298,-13.96 6.31599,-16.95c0.127,-8.814 -13.481,-13.207 -23.22401,-7.498c-3.021,1.771 -4.91199,3.723 -5.64699,5.831c-1.496,4.292 -1.43701,4.563 1.14601,5.258c1.237,0.333 3.338,1.454 4.668,2.49c1.957,1.524 2.38698,2.707 2.25,6.18899c-0.43402,11.09101 -12.75102,12.43901 -18.834,2.06002c-7.04202,-12.01701 0.207,-29.18801 15.67099,-37.121c11.63598,-5.96801 29.78801,-5.569 45.99501,1.01099c11.32498,4.599 25.45598,9.983 26.20097,9.983c0.45102,0 2.95301,0.952 5.56,2.116c2.60602,1.164 6.24402,2.78 8.08301,3.592c20.62601,9.098 42.518,11.171 55.87201,5.29c13.332,-5.871 24.67801,-17.887 27.80798,-29.4497c1.59601,-5.8973 1.66202,-7.5909 0.573,-14.7066c-0.67697,-4.423 -1.74399,-9.2344 -2.37198,-10.69199c-2.71701,-6.31501 -7.83701,-13.06161 -12.52002,-16.49931c-6.289,-4.6168 -19.18597,-9.3543 -27.70599,-10.1775c-12.41901,-1.1998 -31.46399,3.4805 -50.999,12.5335c-4.95001,2.2939 -9.67499,4.3213 -10.5,4.5054c-1.96599,0.4387 -10.69301,3.4786 -14.49998,5.0513c-1.65001,0.6815 -3.90001,1.3999 -5,1.5964c-3.16301,0.56481 -2.968,4.7264 0.47499,10.147c3.5,5.5114 7.168,7.4397 15.78099,8.2963c8.61601,0.8569 12.04701,-1.06 24.32201,-13.5898c10.07998,-10.2883 17.306,-15.4963 20.56601,-14.8222c0.93197,0.1925 -0.49402,1.8143 -3.78702,4.3088c-8.176,6.1922 -15.98999,15.119 -20.07001,22.9274c-1.46799,2.8107 -1.401,3.10969 1.68903,7.5c1.77099,2.5149 3.47897,5.3109 3.79797,6.21329c0.48502,1.37322 1.69202,1.56021 7.40201,1.14701c9.98401,-0.7224 13.46899,-2.6894 14.897,-8.4093c1.90399,-7.62671 6.40701,-15.6962 10.789,-19.3364c2.258,-1.8749 4.29901,-3.2139 4.53699,-2.9757c0.23901,0.2382 -1.17798,2.7958 -3.14798,5.6834c-6.48401,9.504 -8.05402,13.36859 -7.48502,18.4178c1.03702,9.2029 8.68201,13.1079 19.19001,9.8023c9.77301,-3.0739 13.96801,-11.0117 7.294,-13.8015c-3.71701,-1.5536 -5.21701,-3.17321 -6.03799,-6.519c-1.081,-4.40131 2.961,-9.1493 7.78799,-9.1493c8.591,0 12.42899,13.7289 6.926,24.7729c-4.99201,10.0165 -17.11899,14.9835 -33.926,13.8935c-10.474,-0.679 -15.45401,-2.204 -40.5,-12.40351c-25.55199,-10.40559 -26.66299,-10.79259 -36.12199,-12.58029c-15.31601,-2.8946 -23.459,-3.0863 -32.76201,-0.7711c-10.523,2.6192 -19.941,7.2265 -26.11199,12.7742c-2.63902,2.37289 -5.29402,4.3147 -5.90101,4.3147c-0.607,0 -1.10298,0.844 -1.10298,1.877c0,1.033 -0.61402,2.387 -1.36402,3.009c-0.75,0.623 -2.407,4.797 -3.683,9.277c-2.16101,7.591 -2.23999,8.769 -1.162,17.30699c1.11099,8.79401 2.97,14.96401 5.51502,18.29901c3.47598,4.55699 10.69697,11.00699 14.20397,12.689c11.43401,5.48399 29.013,6.81799 39.99003,3.03399l0,0l0,0.00001zm364.37303,-15.69899c6.76599,-2.39301 16.01398,-3.47602 23.12695,-2.70701c3.02503,0.32599 5.64503,0.48301 5.82306,0.347c0.51697,-0.39401 -8.13104,-8.82701 -10.25305,-9.998c-1.22497,-0.67601 -2.01599,-2.31401 -2.16595,-4.481c-0.297,-4.289 -5.14106,-8.954 -9.29804,-8.954c-1.57397,0 -3.44299,-0.701 -4.15399,-1.558c-1.64899,-1.987 -9.88702,-6.841 -10.52502,-6.203c-0.266,0.266 -0.021,1.7 0.54504,3.187c1.62201,4.268 1.29199,24.00501 -0.47205,28.228c-1.95495,4.679 -1.901,5.73401 0.25,4.79899c0.96204,-0.418 4.16803,-1.61499 7.12305,-2.65998zm-427.03401,-3.42301c-2.30902,-5.22101 -4.10002,-21.21 -3.192,-28.492c0.86499,-6.932 -0.93201,-7.085 -7.06203,-0.602c-4.44299,4.697 -5.62599,5.438 -7.96997,4.99c-2.26001,-0.432 -3.457,0.207 -6.68402,3.565c-3.186,3.31599 -3.931,4.821 -3.931,7.942c0,3.114 -0.571,4.272 -2.984,6.056c-2.961,2.189 -6.384,7.469 -5.449,8.405c0.268,0.26801 2.388,0.119 4.71,-0.33c7.826,-1.515 21.81202,-0.97501 27.223,1.05c7.40802,2.773 7.65602,2.653 5.33902,-2.584zm212.821,-28.305c2.94198,-1.794 3.104,-2.179 2.33798,-5.571c-0.80399,-3.567 -3.30298,-6.399 -5.70099,-6.463c-4.31601,-0.114 -9.991,6.207 -8.837,9.843c0.50302,1.584 4.721,3.693 8.04001,4.02c0.54998,0.054 2.42199,-0.769 4.16,-1.829zm0.24701,-54.0654c1.65799,-5.9931 7.19598,-14.2865 13.94497,-20.8819c4.90601,-4.7939 5.32502,-5.5155 3.836,-6.6041c-1.03698,-0.7583 -3.582,-1.0384 -6.707,-0.7381c-3.84698,0.3695 -5.48398,0.0787 -6.931,-1.2308c-1.04199,-0.943 -3.74798,-1.9631 -6.01199,-2.2669c-3.33899,-0.4478 -4.56,-0.1368 -6.45599,1.6444c-1.60501,1.5079 -4.129,2.3815 -8.04902,2.7861c-3.21798,0.3321 -5.92398,1.145 -6.199,1.8622c-0.68997,1.7977 1.45102,5.4291 3.20102,5.4291c0.806,0 1.46499,0.4179 1.46499,0.9288c0,0.5108 1.61499,2.6417 3.59,4.7353c4.026,4.2689 10.05801,14.0858 11.02701,17.9459c0.793,3.1591 1.69,2.174 3.29001,-3.61z" fill="#fff" id="path2453"/>
  </g>
  <text style="cursor: move;" fill="#fff" stroke="#000000" stroke-width="0" x="317.765311" y="377.605922" id="svg_1" font-size="24" font-family="serif" text-anchor="middle" xml:space="preserve" transform="matrix(15.7017,0,0,12.5926,-4687.35,-4386.62) " opacity="0.75">K</text>
 </g>
</svg>